<?xml version="1.0" encoding="utf-8"?>
<!-- Generator: Adobe Illustrator 21.0.0, SVG Export Plug-In . SVG Version: 6.00 Build 0)  -->
<svg version="1.1" id="Capa_1" xmlns="http://www.w3.org/2000/svg" xmlns:xlink="http://www.w3.org/1999/xlink" x="0px" y="0px"
	 viewBox="0 0 42 41" style="enable-background:new 0 0 42 41;" xml:space="preserve">
<style type="text/css">
	.st0{fill:#FFFFFF;}
	.st1{fill:#010101;}
</style>
<g>
	<circle class="st0" cx="21.1" cy="20.9" r="18.1"/>
	<g>
		<path d="M33,20.1c0,0.7-0.5,1.3-1.2,1.3c0,0,0,0,0,0h-2.2v6.7c0,0.7-0.5,1.3-1.2,1.3h-3.8c-0.6,0-1.2-0.6-1.2-1.3v-3.6
			c0-1.2-0.9-2.1-1.9-2.1c-1.1,0-1.9,0.9-1.9,2.1v3.6c0,0.7-0.5,1.3-1.2,1.3h-3.8c-0.6,0-1.2-0.6-1.2-1.3v-6.7h-2.2
			c-0.5,0-0.9-0.3-1.1-0.8c-0.2-0.5,0-1.1,0.4-1.4l10.3-9.3c0.4-0.4,1.1-0.4,1.5,0L32.5,19C32.8,19.2,33,19.6,33,20.1z"/>
	</g>
</g>
</svg>
