<?xml version="1.0" encoding="utf-8"?>
<!-- Generator: Adobe Illustrator 21.0.0, SVG Export Plug-In . SVG Version: 6.00 Build 0)  -->
<svg version="1.1" id="Capa_1" xmlns="http://www.w3.org/2000/svg" xmlns:xlink="http://www.w3.org/1999/xlink" x="0px" y="0px"
	 viewBox="0 0 42 41" style="enable-background:new 0 0 42 41;" xml:space="preserve">
<style type="text/css">
	.st0{fill:#FFFFFF;}
</style>
<g>
	<circle class="st0" cx="21.1" cy="20.9" r="18.1"/>
</g>
<g id="XMLID_2_">
	<path id="XMLID_4_" d="M31.2,14.4h-0.9v2.1v2.1V29h-7.6h-5.5h-1.9v1c0,0.6,0.4,1,0.9,1h15c0.5,0,0.9-0.5,0.9-1V15.5
		C32.1,14.9,31.7,14.4,31.2,14.4z"/>
	<path id="XMLID_5_" d="M28.4,12.5v-1.2c0-0.6-0.4-1-0.9-1H24v-1c0-0.6-0.4-1-0.9-1c-0.5,0-0.9,0.5-0.9,1v1h-4.4v-1
		c0-0.6-0.4-1-0.9-1s-0.9,0.5-0.9,1v1h-3.4c-0.5,0-0.9,0.5-0.9,1v3.1h16.9V12.5z"/>
	<path id="XMLID_6_" d="M17.1,26.9h5.5h4.8c0.5,0,0.9-0.5,0.9-1v-7.3v-2.1H11.5v9.4c0,0.6,0.4,1,0.9,1h2.1h0.7H17.1z"/>
</g>
<g>
	<path class="st0" d="M22.8,21.3l-1.2,1.1l0.3,1.6c0.1,0.2-0.1,0.4-0.2,0.5c-0.1,0.1-0.2,0.1-0.3,0.1c-0.1,0-0.2,0-0.2-0.1l-1.4-0.8
		l-1.4,0.8c-0.2,0.1-0.4,0.1-0.5-0.1c-0.2-0.1-0.2-0.3-0.2-0.5l0.3-1.6l-1.2-1.1c-0.1-0.1-0.2-0.3-0.1-0.5s0.2-0.3,0.4-0.4l1.6-0.2
		l0.7-1.5c0.1-0.2,0.2-0.3,0.4-0.3s0.4,0.1,0.4,0.3l0.7,1.5l1.6,0.2c0.2,0,0.4,0.2,0.4,0.4C23,21,23,21.2,22.8,21.3z"/>
</g>
</svg>
