<?xml version="1.0" encoding="utf-8"?>
<!-- Generator: Adobe Illustrator 21.0.0, SVG Export Plug-In . SVG Version: 6.00 Build 0)  -->
<svg version="1.1" id="Capa_1" xmlns="http://www.w3.org/2000/svg" xmlns:xlink="http://www.w3.org/1999/xlink" x="0px" y="0px"
	 viewBox="0 0 42 41" style="enable-background:new 0 0 42 41;" xml:space="preserve">
<style type="text/css">
	.st0{fill:#FFFFFF;}
	.st1{fill:#010101;}
</style>
<circle class="st0" cx="21.1" cy="21.1" r="18.1"/>
<g>
	<path d="M21,9.7c-4.8,0-8.8,3.9-8.8,8.8c0,7.2,7.9,14.2,8.2,14.5c0.2,0.1,0.3,0.2,0.5,0.2c0.2,0,0.4-0.1,0.5-0.2
		c0.3-0.3,8.2-7.3,8.2-14.5C29.8,13.7,25.8,9.7,21,9.7z M26.1,18l-2,1.9l0.5,2.7c0.1,0.3-0.1,0.6-0.3,0.8c-0.1,0.1-0.3,0.2-0.5,0.2
		c-0.1,0-0.3,0-0.4-0.1L21,22.2l-2.4,1.3c-0.3,0.1-0.6,0.1-0.9-0.1c-0.3-0.2-0.4-0.5-0.3-0.8l0.5-2.7l-2-1.9
		c-0.2-0.2-0.3-0.5-0.2-0.8c0.1-0.3,0.3-0.5,0.7-0.6l2.7-0.4l1.2-2.5c0.1-0.3,0.4-0.5,0.7-0.5c0.3,0,0.6,0.2,0.7,0.5l1.2,2.5
		l2.7,0.4c0.3,0,0.6,0.3,0.7,0.6C26.4,17.5,26.4,17.8,26.1,18z"/>
</g>
</svg>
