<?xml version="1.0" encoding="utf-8"?>
<!-- Generator: Adobe Illustrator 21.0.0, SVG Export Plug-In . SVG Version: 6.00 Build 0)  -->
<svg version="1.1" id="Capa_1" xmlns="http://www.w3.org/2000/svg" xmlns:xlink="http://www.w3.org/1999/xlink" x="0px" y="0px"
	 viewBox="0 0 42 41" style="enable-background:new 0 0 42 41;" xml:space="preserve">
<style type="text/css">
	.st0{fill:#FFFFFF;}
	.st1{fill:none;stroke:#000000;stroke-width:1.5;stroke-miterlimit:10;}
</style>
<g>
	<circle class="st0" cx="21.1" cy="20.9" r="18.1"/>
</g>
<g>
	<g>
		<g>
			<path d="M25.3,20.7c0,0.6-0.4,1-0.9,1c0,0,0,0,0,0h-1.8v5.4c0,0.6-0.4,1-0.9,1h-3.1c-0.5,0-0.9-0.5-0.9-1v-2.9
				c0-0.9-0.7-1.7-1.6-1.7c-0.9,0-1.6,0.8-1.6,1.7v2.9c0,0.6-0.4,1-0.9,1h-3.1c-0.5,0-0.9-0.5-0.9-1v-5.4H7.8
				c-0.4,0-0.7-0.3-0.9-0.7c-0.1-0.4,0-0.9,0.3-1.1l8.3-7.4c0.3-0.3,0.8-0.3,1.2,0l8.2,7.4C25.1,20.1,25.3,20.4,25.3,20.7z"/>
		</g>
		<g>
			<g>
				<path class="st1" d="M16,17l1.3-1.1l1.4-1.2l0.8-0.7l1.4-1.2c0.3-0.3,0.8-0.3,1.2,0l8.2,7c0.3,0.2,0.4,0.5,0.4,0.8
					c0,0.5-0.4,1-0.9,1c0,0,0,0,0,0H28v5.1c0,0.5-0.4,1-0.9,1c-1.1,0-2.3,0-3.4,0c-1.2,0-2.3,0-3.5,0c-0.5,0-1.1,0-1.6,0"/>
			</g>
		</g>
		<g>
			<g>
				<path class="st1" d="M23.5,14.7l0.8-0.7l1.4-1.2c0.3-0.3,0.8-0.3,1.2,0l8.2,7c0.3,0.2,0.4,0.5,0.4,0.8c0,0.5-0.4,1-0.9,1
					c0,0,0,0,0,0h-1.8v5.1c0,0.5-0.4,1-0.9,1c-1.1,0-2.3,0-3.4,0c-1.2,0-2.3,0-3.5,0c-0.5,0-1.1,0-1.6,0"/>
			</g>
		</g>
	</g>
</g>
</svg>
