<svg id="Capa_1" data-name="Capa 1" xmlns="http://www.w3.org/2000/svg" xmlns:xlink="http://www.w3.org/1999/xlink" viewBox="0 0 80 80"><defs><style>.cls-1{fill:url(#Degradado_sin_nombre_25_copia);}</style><linearGradient id="Degradado_sin_nombre_25_copia" x1="39.19" y1="20.09" x2="40.03" y2="68.1" gradientUnits="userSpaceOnUse"><stop offset="0" stop-color="#75f2ae"/><stop offset="1" stop-color="#75f6f7"/></linearGradient></defs><title>logo-icalldibs-web</title><path d="M74.32,34.28,45.55,7.53a9.58,9.58,0,0,0-13.37.39L5,36.3a5.26,5.26,0,0,0-1,5.82A5.39,5.39,0,0,0,9.1,45.25h.18a3.91,3.91,0,0,1,4.11,3.69l.55,18.92a6.92,6.92,0,0,0,7.16,6.66L60.5,73.37a6.92,6.92,0,0,0,6.76-7.07l-.55-18.92a3.91,3.91,0,0,1,3.89-3.92h.18A5.39,5.39,0,0,0,75.65,40,5.26,5.26,0,0,0,74.32,34.28Z"/><path class="cls-1" d="M39.49,67.92a2.2,2.2,0,0,0,1.46-.53c.69-.61,17-15.21,17-30.29,0-9-8.26-16.32-18.41-16.32S21.08,28.1,21.08,37.1c0,15.08,16.26,29.67,17,30.29A2.2,2.2,0,0,0,39.49,67.92Z"/><path d="M43.67,36.09a.38.38,0,0,1,0-.64c3.93-2.82.07-8-4.2-8.33-4.8-.4-8.09,7-3.87,9a.38.38,0,0,1,.13.61c-2,2.25-1.44,7.6-1.3,9.68a.8.8,0,0,0,1,.72l.66-.08a.4.4,0,0,1,.45.45A12.19,12.19,0,0,0,36.42,49c-.08,2.4.65,4.76.22,7.15a1.19,1.19,0,0,0,1.1,1.39c1.35.15,2.73.65,4.07.32a.5.5,0,0,0,.41-.59.79.79,0,0,0,.87-1.11c-.67-1.36-.31-3.26-.17-4.69s.41-3.09.47-4.64a.4.4,0,0,1,.41-.38,7,7,0,0,1,1,0,.78.78,0,0,0,1-.7C45.87,42.65,46.9,38.16,43.67,36.09Zm-1-5.86-.58.55-.63-.43a17.12,17.12,0,0,1-1.55-1.2c-.16-.14-.31-.32-.49-.47h0A4.43,4.43,0,0,1,42.69,30.23Zm-4.45-1.37a.43.43,0,0,1,.51.23,6.05,6.05,0,0,0,1.69,1.65c.57.47,1.17.9,1.76,1.35a9.08,9.08,0,0,0,.94.71.38.38,0,0,1,.19.49,2.59,2.59,0,0,1-.63.83.52.52,0,0,0-.18-.2,52.59,52.59,0,0,1-5.27-4.05.38.38,0,0,1,.06-.61A4.18,4.18,0,0,1,38.23,28.86Zm-2.74,2.72a3.77,3.77,0,0,1,.68-1.33.43.43,0,0,1,.64,0c1.57,1.6,3.46,2.91,5.1,4.43l0,0a.74.74,0,0,0-.06.91.37.37,0,0,1,0,.41.8.8,0,0,0-.11.24c-.71-.46-1.43-.91-2.06-1.38A38.52,38.52,0,0,0,35.68,32Zm0,2.07a.41.41,0,0,1,.66-.41c1.14.83,2.27,1.68,3.37,2.57s2.58,2.52,4.15,2.94a.43.43,0,0,0,.27,0,6.47,6.47,0,0,1,.53,2.61.39.39,0,0,0-.07-.11A20.72,20.72,0,0,0,41.07,39a27.8,27.8,0,0,1-2.71-2.14.37.37,0,0,1-.1-.38.59.59,0,0,0-.61-.76,3,3,0,0,0-.42.08L37,35.56a.29.29,0,0,0-.19-.09A4.24,4.24,0,0,1,35.51,33.65ZM37,45.87l-.67-.06a.4.4,0,0,1-.37-.39c0-.09,0-.18,0-.26l1.15.74Zm1.1,4.92q0-.32-.06-.65a.42.42,0,0,1,.7-.31l.39.35,1,.88a3.06,3.06,0,0,0,.41.37c.27.17.1.11.09-.06a.38.38,0,0,0,.16.26.35.35,0,0,1,.14.34q0,.27-.05.54l-.71.25-.36-.34c-.55-.52-1.07-1.07-1.65-1.57Zm.2,4.93v0a.42.42,0,0,1,.67-.28l.6.42c.28.19.59.41.91.62a16.85,16.85,0,0,0-1.81-.31A.4.4,0,0,1,38.33,55.72Zm1.95-.4a18.67,18.67,0,0,1-1.75-1.18.38.38,0,0,1-.16-.29c0-.31,0-.62-.05-.93a.42.42,0,0,1,.73-.28l.24.25a5.36,5.36,0,0,0,1.37,1.23.38.38,0,0,1,.22.31q0,.26.07.52a.41.41,0,0,1-.62.39Zm1-5.31a.42.42,0,0,1-.67.24l-.08-.06c-.77-.58-1.56-1.15-2.33-1.74a.39.39,0,0,1-.15-.3c0-.12,0-.24,0-.35s0-.36,0-.52a.42.42,0,0,1,.68-.26,9.27,9.27,0,0,0,2.12,1.42c.34.14.67-.14.5-.47-.46-.88-1.71-1.48-2.56-2s-1.74-1-2.61-1.55a.39.39,0,0,1-.2-.33c0-.39,0-.79,0-1.18a.42.42,0,0,1,.7-.28l2,1.75c.81.71,1.77,1.84,2.9,2.1a.39.39,0,0,0,.19,0A29.68,29.68,0,0,1,41.24,50Zm3.06-5a.4.4,0,0,1-.35.36,4.2,4.2,0,0,1-1.24,0,.51.51,0,0,0-.62.44l-.12.1,0,0c-.92-.81-2-1.46-3-2.23s-1.81-1.51-2.76-2.2A.38.38,0,0,1,36,41.1a7.48,7.48,0,0,1,.31-1.67.43.43,0,0,1,.68-.16c1.16,1,2.4,2,3.64,2.86.79.57,2.11,1.84,3.3,2a.39.39,0,0,1,.36.4Q44.31,44.78,44.3,45Zm.18-2.39a.42.42,0,0,1-.66.3c-.93-.62-2-1.13-2.91-1.71-1.27-.86-2.52-1.76-3.74-2.69a.37.37,0,0,1-.09-.51l.22-.29a.44.44,0,0,1,.64,0c.81.76,1.73,1.44,2.57,2.08s2.31,2.07,3.61,2.22a.35.35,0,0,0,.39-.23C44.5,42,44.49,42.3,44.48,42.59Z"/></svg>